<?xml version="1.0" encoding="UTF-8" standalone="no" ?>
<!DOCTYPE svg PUBLIC "-//W3C//DTD SVG 1.1//EN" "http://www.w3.org/Graphics/SVG/1.1/DTD/svg11.dtd">
<svg xmlns="http://www.w3.org/2000/svg" xmlns:xlink="http://www.w3.org/1999/xlink" version="1.1" width="1280" height="1024" viewBox="0 0 1280 1024" xml:space="preserve">
<desc>Created with Fabric.js 5.3.0</desc>
<defs>
</defs>
<g transform="matrix(1 0 0 1 640 512)" id="background-logo"  >
<rect style="stroke: none; stroke-width: 0; stroke-dasharray: none; stroke-linecap: butt; stroke-dashoffset: 0; stroke-linejoin: miter; stroke-miterlimit: 4; fill: rgb(255,255,255); fill-opacity: 0; fill-rule: nonzero; opacity: 1;"  paint-order="stroke"  x="-640" y="-512" rx="0" ry="0" width="1280" height="1024" />
</g>
<g transform="matrix(1.7625663937026874 0 0 1.7625663937026874 261.004375 512)" id="logo-logo"  >
<g style=""  paint-order="stroke"   >
		<g transform="matrix(0.143751234643602 0 0 -0.143751234643602 0 0)"  >
<path style="stroke: none; stroke-width: 1; stroke-dasharray: none; stroke-linecap: butt; stroke-dashoffset: 0; stroke-linejoin: miter; stroke-miterlimit: 4; fill: rgb(0,0,0); fill-rule: nonzero; opacity: 1;"  paint-order="stroke"  transform=" translate(-2982.5649999999996, -7805.16)" d="M 3365.32 7791.54 L 3365.32 7791.5199999999995 L 3307.9900000000002 7761.87 L 3307.9900000000002 7827.01 L 3098.3100000000004 7827.01 L 3098.3100000000004 7975.110000000001 L 2906.6800000000003 8100.620000000001 L 2906.6800000000003 7827.010000000001 L 2849.4100000000003 7827.010000000001 L 2849.4100000000003 8132.190000000001 L 2849.4100000000003 8132.200000000002 L 3178.2700000000004 8302.230000000001 L 3178.2700000000004 7875.290000000002 L 3365.3200000000006 7972.000000000002 z M 3247.65 7712.32 L 3247.65 7695.719999999999 L 3037.9700000000003 7695.719999999999 L 3037.9700000000003 7225.0599999999995 L 2967.0200000000004 7225.0599999999995 L 2967.0200000000004 7695.719999999999 L 2757.3500000000004 7695.719999999999 L 2757.3500000000004 7766.669999999999 L 2819.2400000000002 7766.669999999999 L 2967.0200000000004 7766.669999999999 L 2967.0200000000004 7988.98 L 3037.9700000000003 7942.5 L 3037.9700000000003 7766.67 L 3247.65 7766.67 z M 3425.66 7822.73 L 3425.66 8071.11 L 3238.6099999999997 7974.4 L 3238.6099999999997 8401.34 L 2849.41 8200.11 L 2849.41 8333.480000000001 L 2391.64 8445.6 L 2391.64 7164.72 L 2639.04 7164.72 L 2639.04 8035.47 L 2744.3 8077.84 L 2753.15 8150.35 L 2578.7000000000003 8072.200000000001 L 2578.7000000000003 7225.06 L 2451.99 7225.06 L 2451.99 8367.7 L 2789.0699999999997 8286.730000000001 L 2789.0699999999997 8168.920000000001 L 2789.0699999999997 8100.990000000001 L 2789.0699999999997 8018.06 L 2789.0699999999997 7827.01 L 2697.0099999999998 7827.01 L 2697.0099999999998 7635.38 L 2906.68 7635.38 L 2906.68 7164.72 L 3098.31 7164.72 L 3098.31 7635.38 L 3307.99 7635.38 L 3307.99 7693.96 L 3365.3199999999997 7723.61 L 3425.66 7754.799999999999 L 3513.14 7800.039999999999 L 3513.14 7225.0599999999995 L 3425.66 7225.0599999999995 L 3425.66 7721.749999999999 L 3365.3199999999997 7673.949999999999 L 3365.3199999999997 7164.719999999999 L 3573.49 7164.719999999999 L 3573.49 7899.15 L 3425.66 7822.73" stroke-linecap="round" />
</g>
</g>
</g>
<g transform="matrix(1.9211538461538462 0 0 1.9211538461538462 815.0613019230768 490.08847223906855)" id="text-logo"  >
<g style=""  paint-order="stroke"   >
		<g transform="matrix(1 0 0 1 0 0)" id="text-logo-path-0"  >
<path style="stroke: none; stroke-width: 0; stroke-dasharray: none; stroke-linecap: butt; stroke-dashoffset: 0; stroke-linejoin: miter; stroke-miterlimit: 4; fill: rgb(0,0,0); fill-rule: nonzero; opacity: 1;"  paint-order="stroke"  transform=" translate(-183.55, 16.8)" d="M 1.34 -24.67 L 1.34 -8.93 C 1.34 -3.46 5.09 0.48 10.8 0.48 C 16.27 0.48 20.21 -3.26 20.21 -8.93 L 20.21 -11.33 L 14.93 -11.33 L 14.93 -8.93 C 14.93 -5.9 13.78 -4.8 10.8 -4.8 C 7.73 -4.8 6.62 -5.95 6.62 -8.93 L 6.62 -24.67 C 6.62 -27.74 7.78 -28.8 10.8 -28.8 C 13.82 -28.8 14.93 -27.65 14.93 -24.67 L 14.93 -22.27 L 20.21 -22.27 L 20.21 -24.67 C 20.21 -30.14 16.46 -34.08 10.8 -34.08 C 5.33 -34.08 1.34 -30.43 1.34 -24.67 Z M 38.26 -33.6 L 38.26 0 L 43.54 0 L 43.54 -14.64 L 51.84 -14.64 L 51.84 0 L 57.12 0 L 57.12 -33.6 L 51.84 -33.6 L 51.84 -19.92 L 43.54 -19.92 L 43.54 -33.6 Z M 84.91 -33.6 L 75.5 -33.6 L 75.5 0 L 80.78 0 L 80.78 -14.69 L 84.91 -14.69 C 87.94 -14.69 89.09 -13.58 89.09 -10.51 L 89.09 0 L 94.37 0 L 94.37 -10.51 C 94.37 -13.34 93.41 -15.7 91.73 -17.33 C 93.41 -19.01 94.37 -21.41 94.37 -24.14 C 94.37 -29.86 90.43 -33.6 84.91 -33.6 Z M 84.91 -19.97 L 80.78 -19.97 L 80.78 -28.32 L 84.91 -28.32 C 87.94 -28.32 89.09 -27.22 89.09 -24.14 C 89.09 -21.17 87.94 -19.97 84.91 -19.97 Z M 112.51 -33.6 L 112.51 0 L 117.79 0 L 117.79 -33.6 Z M 148.51 -24.67 L 148.51 -22.27 L 153.79 -22.27 L 153.79 -24.67 C 153.79 -30.38 149.9 -34.08 144.38 -34.08 C 138.62 -34.08 134.93 -30.19 134.93 -24.67 C 134.93 -19.39 139.3 -16.85 142.61 -14.93 C 146.16 -12.86 148.51 -11.57 148.51 -8.93 C 148.51 -5.86 147.41 -4.8 144.38 -4.8 C 141.26 -4.8 140.21 -5.9 140.21 -8.93 L 140.21 -11.33 L 134.93 -11.33 L 134.93 -8.93 C 134.93 -3.41 138.62 0.48 144.38 0.48 C 149.9 0.48 153.79 -3.22 153.79 -8.93 C 153.79 -14.74 148.8 -17.42 145.3 -19.54 C 142.03 -21.36 140.21 -22.46 140.21 -24.67 C 140.21 -27.7 141.26 -28.8 144.38 -28.8 C 147.41 -28.8 148.51 -27.74 148.51 -24.67 Z M 188.3 -33.6 L 169.58 -33.6 L 169.58 -28.32 L 176.3 -28.32 L 176.3 0 L 181.58 0 L 181.58 -28.32 L 188.3 -28.32 Z M 205.2 -33.6 L 205.2 0 L 210.48 0 L 210.48 -33.6 Z M 232.03 -33.6 L 226.27 0 L 231.55 0 L 232.13 -3.36 L 239.28 -3.36 L 239.86 0 L 245.14 0 L 239.38 -33.6 Z M 233.04 -8.64 L 235.73 -24.24 L 238.37 -8.64 Z M 262.7 -33.6 L 262.7 0 L 267.98 0 L 267.98 -19.87 L 276.29 0 L 281.57 0 L 281.57 -33.6 L 276.29 -33.6 L 276.29 -12.62 L 267.5 -33.6 Z M 329.66 -33.6 L 323.9 0 L 329.18 0 L 329.76 -3.36 L 336.91 -3.36 L 337.49 0 L 342.77 0 L 337.01 -33.6 Z M 330.67 -8.64 L 333.36 -24.24 L 336 -8.64 Z M 360.48 -33.6 L 360.48 0 L 365.76 0 L 365.76 -33.6 Z" stroke-linecap="round" />
</g>
</g>
</g>
<g transform="matrix(1.9211538461538462 0 0 1.9211538461538462 815.3005680231508 558.5698123542348)" id="tagline-2fe2a5ec-0ff6-4c61-8487-3b6f544541a4-logo"  >
<g style=""  paint-order="stroke"   >
		<g transform="matrix(1 0 0 1 0 0)" id="tagline-2fe2a5ec-0ff6-4c61-8487-3b6f544541a4-logo-path-0"  >
<path style="stroke: none; stroke-width: 0; stroke-dasharray: none; stroke-linecap: butt; stroke-dashoffset: 0; stroke-linejoin: miter; stroke-miterlimit: 4; fill: rgb(0,0,0); fill-rule: nonzero; opacity: 1;"  paint-order="stroke"  transform=" translate(-85.64999999999999, 7)" d="M 7.2 -14 L 0.6 -14 L 0.6 -12.8 L 3.2 -12.8 L 3.2 0 L 4.6 0 L 4.6 -12.8 L 7.2 -12.8 Z M 16.08 0 L 17.48 0 L 18.28 -3.8 L 21.86 -3.8 L 22.66 0 L 24.06 0 L 21.12 -14 L 19.02 -14 Z M 18.54 -5 L 20.08 -12.34 L 21.62 -5 Z M 35.14 -14 L 35.14 0 L 40.14 0 L 40.14 -1.2 L 36.54 -1.2 L 36.54 -14 Z M 50.84 -14 L 50.84 0 L 52.24 0 L 52.24 -5.92 L 52.66 -6.58 L 56.04 0 L 57.54 0 L 53.48 -7.9 L 57.26 -14 L 55.76 -14 L 52.24 -8.34 L 52.24 -14 Z M 85.7 -14 L 79.1 -14 L 79.1 -12.8 L 81.7 -12.8 L 81.7 0 L 83.1 0 L 83.1 -12.8 L 85.7 -12.8 Z M 96.28 -11 L 96.28 -3 C 96.28 -0.32 97.8 0.2 99.68 0.2 C 101.58 0.2 103.08 -0.36 103.08 -3 L 103.08 -11 C 103.08 -13.68 101.58 -14.2 99.68 -14.2 C 97.8 -14.2 96.28 -13.68 96.28 -11 Z M 97.68 -3.4 L 97.68 -10.6 C 97.68 -12.42 98.46 -12.8 99.68 -12.8 C 100.9 -12.8 101.68 -12.42 101.68 -10.6 L 101.68 -3.4 C 101.68 -1.58 100.9 -1.2 99.68 -1.2 C 98.46 -1.2 97.68 -1.58 97.68 -3.4 Z M 133.84 -7 L 130.24 -7 L 130.24 -5.8 L 132.44 -5.8 L 132.44 -3.4 C 132.44 -1.58 131.66 -1.2 130.44 -1.2 C 129.22 -1.2 128.44 -1.58 128.44 -3.4 L 128.44 -10.6 C 128.44 -12.42 129.22 -12.8 130.44 -12.8 C 131.66 -12.8 132.44 -12.42 132.44 -10.6 L 132.44 -8.6 L 133.84 -8.6 L 133.84 -11 C 133.84 -13.68 132.34 -14.2 130.44 -14.2 C 128.56 -14.2 127.04 -13.68 127.04 -11 L 127.04 -3 C 127.04 -0.32 128.56 0.2 130.44 0.2 C 131.06 0.2 132.04 -0.06 132.58 -1.16 L 133.04 0 L 133.84 0 Z M 145.52 -11 L 145.52 -3 C 145.52 -0.32 147.04 0.2 148.92 0.2 C 150.82 0.2 152.32 -0.36 152.32 -3 L 152.32 -11 C 152.32 -13.68 150.82 -14.2 148.92 -14.2 C 147.04 -14.2 145.52 -13.68 145.52 -11 Z M 146.92 -3.4 L 146.92 -10.6 C 146.92 -12.42 147.7 -12.8 148.92 -12.8 C 150.14 -12.8 150.92 -12.42 150.92 -10.6 L 150.92 -3.4 C 150.92 -1.58 150.14 -1.2 148.92 -1.2 C 147.7 -1.2 146.92 -1.58 146.92 -3.4 Z M 167.3 -14 L 164.3 -14 L 164.3 0 L 167.3 0 C 169.2 0 170.7 -0.56 170.7 -3.2 L 170.7 -10.8 C 170.7 -13.48 169.2 -14 167.3 -14 Z M 165.7 -12.8 L 167.3 -12.8 C 168.52 -12.8 169.3 -12.42 169.3 -10.6 L 169.3 -3.4 C 169.3 -1.58 168.52 -1.2 167.3 -1.2 L 165.7 -1.2 Z" stroke-linecap="round" />
</g>
</g>
</g>
</svg>